<mxfile host="app.diagrams.net" modified="2024-04-14T11:34:59.232Z" agent="Mozilla/5.0 (Windows NT 10.0; Win64; x64) AppleWebKit/537.36 (KHTML, like Gecko) Chrome/123.0.0.0 Safari/537.36 Edg/123.0.0.0" etag="TIwB8elGZPmyJ_DzO1Ig" version="24.2.5" type="device">
  <diagram name="Page-1" id="92iNq66EZWSdoLbc1DNB">
    <mxGraphModel dx="726" dy="436" grid="1" gridSize="10" guides="1" tooltips="1" connect="1" arrows="1" fold="1" page="1" pageScale="1" pageWidth="827" pageHeight="1169" math="0" shadow="0">
      <root>
        <mxCell id="0" />
        <mxCell id="1" parent="0" />
        <mxCell id="lt_hlPJvsq-XrQok6tuB-1" value="0" style="ellipse;whiteSpace=wrap;html=1;aspect=fixed;" vertex="1" parent="1">
          <mxGeometry x="120" y="20" width="30" height="30" as="geometry" />
        </mxCell>
        <mxCell id="lt_hlPJvsq-XrQok6tuB-2" value="6" style="ellipse;whiteSpace=wrap;html=1;aspect=fixed;" vertex="1" parent="1">
          <mxGeometry x="300" y="140" width="30" height="30" as="geometry" />
        </mxCell>
        <mxCell id="lt_hlPJvsq-XrQok6tuB-3" value="5" style="ellipse;whiteSpace=wrap;html=1;aspect=fixed;" vertex="1" parent="1">
          <mxGeometry x="120" y="240" width="30" height="30" as="geometry" />
        </mxCell>
        <mxCell id="lt_hlPJvsq-XrQok6tuB-4" value="4" style="ellipse;whiteSpace=wrap;html=1;aspect=fixed;" vertex="1" parent="1">
          <mxGeometry x="210" y="190" width="30" height="30" as="geometry" />
        </mxCell>
        <mxCell id="lt_hlPJvsq-XrQok6tuB-5" value="3" style="ellipse;whiteSpace=wrap;html=1;aspect=fixed;" vertex="1" parent="1">
          <mxGeometry x="40" y="190" width="30" height="30" as="geometry" />
        </mxCell>
        <mxCell id="lt_hlPJvsq-XrQok6tuB-6" value="2" style="ellipse;whiteSpace=wrap;html=1;aspect=fixed;" vertex="1" parent="1">
          <mxGeometry x="210" y="90" width="30" height="30" as="geometry" />
        </mxCell>
        <mxCell id="lt_hlPJvsq-XrQok6tuB-7" value="1" style="ellipse;whiteSpace=wrap;html=1;aspect=fixed;" vertex="1" parent="1">
          <mxGeometry x="40" y="90" width="30" height="30" as="geometry" />
        </mxCell>
        <mxCell id="lt_hlPJvsq-XrQok6tuB-10" value="" style="endArrow=none;html=1;rounded=0;exitX=1;exitY=0.5;exitDx=0;exitDy=0;entryX=0;entryY=0.5;entryDx=0;entryDy=0;" edge="1" parent="1" source="lt_hlPJvsq-XrQok6tuB-7" target="lt_hlPJvsq-XrQok6tuB-6">
          <mxGeometry width="50" height="50" relative="1" as="geometry">
            <mxPoint x="350" y="250" as="sourcePoint" />
            <mxPoint x="400" y="200" as="targetPoint" />
          </mxGeometry>
        </mxCell>
        <mxCell id="lt_hlPJvsq-XrQok6tuB-11" value="" style="endArrow=none;html=1;rounded=0;exitX=1;exitY=0.5;exitDx=0;exitDy=0;entryX=0;entryY=0.5;entryDx=0;entryDy=0;" edge="1" parent="1" source="lt_hlPJvsq-XrQok6tuB-5" target="lt_hlPJvsq-XrQok6tuB-6">
          <mxGeometry width="50" height="50" relative="1" as="geometry">
            <mxPoint x="80" y="115" as="sourcePoint" />
            <mxPoint x="220" y="115" as="targetPoint" />
          </mxGeometry>
        </mxCell>
        <mxCell id="lt_hlPJvsq-XrQok6tuB-12" value="" style="endArrow=none;html=1;rounded=0;exitX=0.5;exitY=0;exitDx=0;exitDy=0;entryX=0;entryY=0.5;entryDx=0;entryDy=0;" edge="1" parent="1" source="lt_hlPJvsq-XrQok6tuB-3" target="lt_hlPJvsq-XrQok6tuB-6">
          <mxGeometry width="50" height="50" relative="1" as="geometry">
            <mxPoint x="90" y="125" as="sourcePoint" />
            <mxPoint x="230" y="125" as="targetPoint" />
          </mxGeometry>
        </mxCell>
        <mxCell id="lt_hlPJvsq-XrQok6tuB-13" value="" style="endArrow=none;html=1;rounded=0;exitX=0.5;exitY=0;exitDx=0;exitDy=0;entryX=0.5;entryY=1;entryDx=0;entryDy=0;" edge="1" parent="1" source="lt_hlPJvsq-XrQok6tuB-4" target="lt_hlPJvsq-XrQok6tuB-6">
          <mxGeometry width="50" height="50" relative="1" as="geometry">
            <mxPoint x="100" y="135" as="sourcePoint" />
            <mxPoint x="240" y="135" as="targetPoint" />
          </mxGeometry>
        </mxCell>
        <mxCell id="lt_hlPJvsq-XrQok6tuB-14" value="" style="endArrow=none;html=1;rounded=0;exitX=1;exitY=0.5;exitDx=0;exitDy=0;entryX=0;entryY=0;entryDx=0;entryDy=0;" edge="1" parent="1" source="lt_hlPJvsq-XrQok6tuB-1" target="lt_hlPJvsq-XrQok6tuB-6">
          <mxGeometry width="50" height="50" relative="1" as="geometry">
            <mxPoint x="110" y="145" as="sourcePoint" />
            <mxPoint x="250" y="145" as="targetPoint" />
          </mxGeometry>
        </mxCell>
        <mxCell id="lt_hlPJvsq-XrQok6tuB-15" value="" style="endArrow=none;html=1;rounded=0;exitX=0.5;exitY=0;exitDx=0;exitDy=0;entryX=0;entryY=0.5;entryDx=0;entryDy=0;" edge="1" parent="1" source="lt_hlPJvsq-XrQok6tuB-7" target="lt_hlPJvsq-XrQok6tuB-1">
          <mxGeometry width="50" height="50" relative="1" as="geometry">
            <mxPoint x="165" y="53" as="sourcePoint" />
            <mxPoint x="224" y="104" as="targetPoint" />
          </mxGeometry>
        </mxCell>
        <mxCell id="lt_hlPJvsq-XrQok6tuB-16" value="" style="endArrow=none;html=1;rounded=0;exitX=0.5;exitY=1;exitDx=0;exitDy=0;entryX=0.5;entryY=0;entryDx=0;entryDy=0;" edge="1" parent="1" source="lt_hlPJvsq-XrQok6tuB-7" target="lt_hlPJvsq-XrQok6tuB-5">
          <mxGeometry width="50" height="50" relative="1" as="geometry">
            <mxPoint x="160" y="45" as="sourcePoint" />
            <mxPoint x="224" y="104" as="targetPoint" />
          </mxGeometry>
        </mxCell>
        <mxCell id="lt_hlPJvsq-XrQok6tuB-18" value="" style="endArrow=none;html=1;rounded=0;exitX=1;exitY=0.5;exitDx=0;exitDy=0;entryX=0;entryY=0.5;entryDx=0;entryDy=0;" edge="1" parent="1" source="lt_hlPJvsq-XrQok6tuB-5" target="lt_hlPJvsq-XrQok6tuB-4">
          <mxGeometry width="50" height="50" relative="1" as="geometry">
            <mxPoint x="80" y="215" as="sourcePoint" />
            <mxPoint x="220" y="115" as="targetPoint" />
          </mxGeometry>
        </mxCell>
        <mxCell id="lt_hlPJvsq-XrQok6tuB-19" value="" style="endArrow=none;html=1;rounded=0;exitX=1;exitY=0.5;exitDx=0;exitDy=0;entryX=0.5;entryY=1;entryDx=0;entryDy=0;" edge="1" parent="1" source="lt_hlPJvsq-XrQok6tuB-3" target="lt_hlPJvsq-XrQok6tuB-4">
          <mxGeometry width="50" height="50" relative="1" as="geometry">
            <mxPoint x="90" y="225" as="sourcePoint" />
            <mxPoint x="230" y="125" as="targetPoint" />
          </mxGeometry>
        </mxCell>
        <mxCell id="lt_hlPJvsq-XrQok6tuB-20" value="" style="endArrow=none;html=1;rounded=0;exitX=0;exitY=0.5;exitDx=0;exitDy=0;entryX=1;entryY=1;entryDx=0;entryDy=0;" edge="1" parent="1" source="lt_hlPJvsq-XrQok6tuB-3" target="lt_hlPJvsq-XrQok6tuB-5">
          <mxGeometry width="50" height="50" relative="1" as="geometry">
            <mxPoint x="170" y="265" as="sourcePoint" />
            <mxPoint x="235" y="230" as="targetPoint" />
          </mxGeometry>
        </mxCell>
        <mxCell id="lt_hlPJvsq-XrQok6tuB-21" value="" style="endArrow=none;html=1;rounded=0;exitX=0.5;exitY=0;exitDx=0;exitDy=0;entryX=1;entryY=1;entryDx=0;entryDy=0;" edge="1" parent="1" source="lt_hlPJvsq-XrQok6tuB-3" target="lt_hlPJvsq-XrQok6tuB-7">
          <mxGeometry width="50" height="50" relative="1" as="geometry">
            <mxPoint x="160" y="265" as="sourcePoint" />
            <mxPoint x="235" y="230" as="targetPoint" />
          </mxGeometry>
        </mxCell>
        <mxCell id="lt_hlPJvsq-XrQok6tuB-22" value="" style="endArrow=none;html=1;rounded=0;exitX=0.5;exitY=0;exitDx=0;exitDy=0;entryX=0.5;entryY=1;entryDx=0;entryDy=0;" edge="1" parent="1" source="lt_hlPJvsq-XrQok6tuB-3" target="lt_hlPJvsq-XrQok6tuB-1">
          <mxGeometry width="50" height="50" relative="1" as="geometry">
            <mxPoint x="145" y="250" as="sourcePoint" />
            <mxPoint x="76" y="126" as="targetPoint" />
          </mxGeometry>
        </mxCell>
        <mxCell id="lt_hlPJvsq-XrQok6tuB-23" value="" style="endArrow=none;html=1;rounded=0;exitX=0;exitY=0;exitDx=0;exitDy=0;entryX=0.5;entryY=1;entryDx=0;entryDy=0;" edge="1" parent="1" source="lt_hlPJvsq-XrQok6tuB-4" target="lt_hlPJvsq-XrQok6tuB-1">
          <mxGeometry width="50" height="50" relative="1" as="geometry">
            <mxPoint x="155" y="260" as="sourcePoint" />
            <mxPoint x="86" y="136" as="targetPoint" />
          </mxGeometry>
        </mxCell>
        <mxCell id="lt_hlPJvsq-XrQok6tuB-24" value="" style="endArrow=none;html=1;rounded=0;exitX=1;exitY=0;exitDx=0;exitDy=0;entryX=0.5;entryY=1;entryDx=0;entryDy=0;" edge="1" parent="1" source="lt_hlPJvsq-XrQok6tuB-5" target="lt_hlPJvsq-XrQok6tuB-1">
          <mxGeometry width="50" height="50" relative="1" as="geometry">
            <mxPoint x="165" y="270" as="sourcePoint" />
            <mxPoint x="110" y="70" as="targetPoint" />
          </mxGeometry>
        </mxCell>
        <mxCell id="lt_hlPJvsq-XrQok6tuB-25" value="" style="endArrow=none;html=1;rounded=0;exitX=0;exitY=0.5;exitDx=0;exitDy=0;entryX=1;entryY=1;entryDx=0;entryDy=0;" edge="1" parent="1" source="lt_hlPJvsq-XrQok6tuB-4" target="lt_hlPJvsq-XrQok6tuB-7">
          <mxGeometry width="50" height="50" relative="1" as="geometry">
            <mxPoint x="175" y="280" as="sourcePoint" />
            <mxPoint x="106" y="156" as="targetPoint" />
          </mxGeometry>
        </mxCell>
        <mxCell id="lt_hlPJvsq-XrQok6tuB-26" value="" style="endArrow=none;html=1;rounded=0;exitX=1;exitY=0.5;exitDx=0;exitDy=0;entryX=0;entryY=0.5;entryDx=0;entryDy=0;" edge="1" parent="1" source="lt_hlPJvsq-XrQok6tuB-6" target="lt_hlPJvsq-XrQok6tuB-2">
          <mxGeometry width="50" height="50" relative="1" as="geometry">
            <mxPoint x="350" y="250" as="sourcePoint" />
            <mxPoint x="400" y="200" as="targetPoint" />
          </mxGeometry>
        </mxCell>
        <mxCell id="lt_hlPJvsq-XrQok6tuB-28" value="" style="endArrow=none;html=1;rounded=0;exitX=1;exitY=0.5;exitDx=0;exitDy=0;entryX=0;entryY=0.5;entryDx=0;entryDy=0;" edge="1" parent="1" source="lt_hlPJvsq-XrQok6tuB-4" target="lt_hlPJvsq-XrQok6tuB-2">
          <mxGeometry width="50" height="50" relative="1" as="geometry">
            <mxPoint x="350" y="250" as="sourcePoint" />
            <mxPoint x="400" y="200" as="targetPoint" />
          </mxGeometry>
        </mxCell>
        <mxCell id="lt_hlPJvsq-XrQok6tuB-29" value="" style="endArrow=none;html=1;rounded=0;exitX=1;exitY=0.5;exitDx=0;exitDy=0;entryX=0;entryY=0.5;entryDx=0;entryDy=0;strokeColor=#000000;" edge="1" parent="1" source="lt_hlPJvsq-XrQok6tuB-5" target="lt_hlPJvsq-XrQok6tuB-2">
          <mxGeometry width="50" height="50" relative="1" as="geometry">
            <mxPoint x="310" y="210" as="sourcePoint" />
            <mxPoint x="360" y="160" as="targetPoint" />
          </mxGeometry>
        </mxCell>
      </root>
    </mxGraphModel>
  </diagram>
</mxfile>
